<?xml version="1.0" encoding="UTF-8"?><svg id="Layer_2" xmlns="http://www.w3.org/2000/svg" viewBox="0 0 357.62 115.29"><defs><style>.cls-1{fill:#06263d;}.cls-1,.cls-2{stroke-width:0px;}.cls-2{fill:#d12222;}</style></defs><g id="Layer_1-2"><path class="cls-2" d="m72.72,34.78c-1.96,0-3.46-.85-4.47-2.51-1.02-1.67-1.53-3.95-1.53-6.87s.52-5.19,1.53-6.87c1.02-1.67,2.51-2.51,4.47-2.51s3.43.84,4.45,2.51c1.02,1.67,1.52,3.97,1.52,6.89s-.5,5.21-1.52,6.89c-1.02,1.67-2.51,2.51-4.47,2.51l.02-.04Zm.02,4.89c3.57,0,6.35-1.33,8.34-3.99,1.99-2.66,2.99-6.1,2.99-10.32s-1-7.67-2.99-10.32c-1.99-2.65-4.77-3.97-8.34-3.97s-6.36,1.32-8.37,3.97c-2.02,2.65-3.04,6.1-3.04,10.34s1,7.66,3.02,10.32c2.01,2.67,4.8,3.99,8.37,3.99l.02-.02Zm-.36,42.27c-2.67,0-4.85-.88-6.52-2.65-1.67-1.76-2.52-4.01-2.52-6.73s.85-4.94,2.52-6.68c1.67-1.75,3.84-2.63,6.52-2.63s4.84.88,6.51,2.63c1.67,1.74,2.52,3.97,2.52,6.68,0,2.13-.54,3.99-1.61,5.59l-3.49-4.28h-6.05l6.28,7.2c-1.25.59-2.64.9-4.15.9v-.02Zm14.3-9.4c0-4.01-1.4-7.4-4.18-10.14-2.79-2.73-6.16-4.11-10.15-4.11s-7.36,1.38-10.15,4.11c-2.78,2.74-4.16,6.13-4.16,10.14s1.38,7.45,4.16,10.21c2.79,2.77,6.17,4.14,10.15,4.14,2.71,0,5.21-.69,7.5-2.09l1.34,1.54h5.38l-3.5-4.24c2.41-2.71,3.62-5.9,3.62-9.56h-.02Zm-59.72,14.36c3.25,0,5.9-.83,7.93-2.48,2.03-1.65,3.06-3.67,3.06-6.07,0-2.07-.64-3.67-1.9-4.78-1.27-1.12-3.12-2.03-5.52-2.76l-6.84-2.21c-1.74-.52-2.63-1.38-2.63-2.59,0-.81.4-1.53,1.23-2.1.83-.58,1.88-.87,3.19-.87,1.52,0,2.88.35,4.09,1.04,1.21.69,2.11,1.59,2.69,2.72l5.01-1.46c-.79-2.01-2.25-3.69-4.38-5.03-2.13-1.34-4.63-2.02-7.49-2.02s-5.19.77-7.07,2.31c-1.88,1.53-2.83,3.4-2.81,5.57-.02,1.71.54,3.14,1.67,4.33,1.13,1.19,2.65,2.09,4.57,2.69l7.03,2.2c1.33.4,2.27.88,2.83,1.42.56.54.83,1.17.83,1.9,0,.94-.48,1.74-1.46,2.43-.98.69-2.24,1.04-3.8,1.04-1.9,0-3.55-.48-4.93-1.44-1.38-.96-2.37-2.19-2.94-3.71l-5.17,1.55c.85,2.34,2.39,4.32,4.61,5.94,2.23,1.61,4.94,2.42,8.11,2.42l.09-.05Zm21.27,11.38v-48.23H0v-1.82h48.23V0h1.82v48.23h48.23v1.82h-48.23v48.23h-1.82ZM25.1,11.58l-8.34,4.3,1.29,4.59,6.18-2.86v21.51h5.47V11.58h-4.6Z"/><path class="cls-2" d="m48.14,108.64c0-1.29-.44-2.36-1.32-3.24-.88-.88-1.96-1.31-3.24-1.31s-2.36.44-3.24,1.31c-.87.88-1.32,1.96-1.32,3.24s.44,2.38,1.32,3.26c.88.87,1.96,1.32,3.23,1.32.93,0,1.77-.25,2.53-.76l.52.6h1.39l-1.08-1.3c.8-.85,1.2-1.89,1.2-3.11h0Zm-4.56,3.32c-.95,0-1.72-.32-2.32-.95-.6-.63-.91-1.42-.91-2.37s.3-1.7.91-2.34c.6-.63,1.37-.94,2.32-.94s1.72.32,2.32.95c.6.63.9,1.41.9,2.34,0,.83-.23,1.55-.69,2.15l-1.35-1.62h-1.55l2.05,2.36c-.5.3-1.07.44-1.69.44h0Zm13.19-7.72v5.22c0,.75-.2,1.36-.6,1.82-.4.45-.98.68-1.73.68s-1.34-.23-1.74-.68c-.41-.46-.61-1.06-.61-1.81v-5.22h-1.37v5.24c0,1.14.33,2.04.98,2.72.66.68,1.57,1.01,2.74,1.01s2.08-.34,2.74-1.02c.66-.68.98-1.58.98-2.71v-5.24h-1.38Zm10.45,8.81h1.43l-3.49-8.81h-1.74l-3.49,8.81h1.43l.84-2.14h4.18l.84,2.14Zm-4.56-3.35l1.63-4.17,1.62,4.17h-3.25Zm13.98,3.35h1.57l-2.27-3.39c.65-.16,1.15-.5,1.51-.99.36-.5.54-1.04.54-1.64,0-.73-.26-1.38-.79-1.94-.52-.56-1.22-.84-2.1-.84h-4.18v8.81h1.36v-3.27h2.22l2.14,3.27Zm-4.36-7.59h2.79c.48,0,.87.15,1.16.46.3.31.44.68.44,1.1s-.15.79-.45,1.09c-.3.3-.7.46-1.2.46h-2.75v-3.1Zm14.88.01v-1.23h-6.35v8.81h6.34v-1.25h-4.99v-2.65h4.36v-1.18h-4.36v-2.51h5Zm6.36-1.23h-3.58v8.81h3.58c1.31,0,2.35-.41,3.12-1.23.77-.82,1.15-1.88,1.15-3.17s-.39-2.35-1.16-3.17c-.77-.82-1.81-1.23-3.11-1.23h0Zm-.02,7.58h-2.2v-6.33h2.2c.9,0,1.61.3,2.14.88.53.59.79,1.34.79,2.27s-.26,1.71-.79,2.3c-.53.6-1.24.9-2.14.9h0Z"/><path class="cls-2" d="m33.5,113.21c1.01,0,1.84-.26,2.48-.77.63-.52.95-1.15.95-1.91,0-.63-.2-1.11-.58-1.46-.39-.35-.96-.65-1.72-.88l-2.17-.69c-.39-.12-.68-.26-.86-.42-.18-.17-.27-.38-.27-.63,0-.32.16-.6.47-.83.31-.23.71-.35,1.2-.35.56,0,1.05.13,1.47.38.42.25.74.58.95.99l1.27-.38c-.27-.63-.73-1.15-1.38-1.57-.65-.42-1.43-.63-2.32-.63s-1.6.24-2.18.72c-.58.47-.87,1.04-.87,1.71,0,1.03.66,1.74,1.98,2.15l2.21.71c.5.16.86.34,1.08.54.22.2.32.45.32.74,0,.36-.19.68-.56.96-.37.28-.85.42-1.44.42-.66,0-1.23-.17-1.72-.52-.48-.34-.83-.79-1.03-1.32l-1.29.39c.25.75.73,1.38,1.44,1.89.71.51,1.55.77,2.53.77h.04Z"/><path class="cls-1" d="m8.14,104.24H.5v1.56h2.96v7.25h1.72v-7.25h2.96v-1.56Zm8.73,1.56v-1.56h-6.49v8.81h6.48v-1.56h-4.79v-2.16h4.16v-1.51h-4.16v-2.01h4.81Zm8.48-1.56v5.71l-4.43-5.71h-1.42v8.81h1.72v-5.73l4.44,5.73h1.42v-8.81h-1.72Z"/><rect class="cls-1" x="117.28" y=".26" width="1.36" height="115.03"/><path class="cls-1" d="m159.5,31.94l-3.18,15.95c-1.28,6.42-4.66,9.08-10.56,9.08-3.42,0-6.21-.97-8.08-2.73l1.45-1.86c1.45,1.48,3.9,2.42,6.8,2.42,4.59,0,7.01-2.11,7.87-6.49l.41-2c-1.73,1.93-4.18,3.11-7.25,3.11-4.8,0-8.01-2.8-8.01-7.32,0-5.83,4.31-10.29,10.35-10.29,3.35,0,6.04,1.38,7.08,4.14l.76-4h2.35Zm-4.14,7.28c0-3.31-2.24-5.28-6.01-5.28-4.59,0-7.9,3.38-7.9,8.01,0,3.31,2.21,5.28,6.01,5.28,4.56,0,7.9-3.38,7.9-8.01Z"/><path class="cls-1" d="m176.54,31.8l-.45,2.38c-.24,0-.41-.03-.69-.03-3.87,0-6.45,2.21-7.35,6.73l-1.83,9.22h-2.45l3.59-18.16h2.35l-.62,3.31c1.62-2.38,4-3.45,7.46-3.45Z"/><path class="cls-1" d="m178.4,42.57c0-6.18,4.38-10.77,10.49-10.77,5.04,0,8.25,2.97,8.25,7.66,0,6.21-4.38,10.8-10.49,10.8-5.04,0-8.25-3.04-8.25-7.7Zm16.29-2.97c0-3.56-2.17-5.66-5.97-5.66-4.52,0-7.87,3.59-7.87,8.53,0,3.56,2.17,5.63,5.97,5.63,4.52,0,7.87-3.55,7.87-8.49Z"/><path class="cls-1" d="m231.88,31.94l-10.25,18.16h-2.38l-3.04-14.84-8.49,14.84h-2.35l-3.56-18.16h2.24l2.93,15.39,8.77-15.39h2.07l3.04,15.39,8.63-15.39h2.38Z"/><path class="cls-1" d="m238.83,44.61c-.07.41-.14.79-.14,1.14,0,1.55.86,2.42,2.62,2.42,1,0,1.97-.31,2.8-.93l.59,1.86c-1.14.86-2.66,1.17-4.04,1.17-2.73,0-4.42-1.55-4.42-4.14,0-.45.03-.93.14-1.42l2.11-10.7h-3.21l.38-2.07h3.24l.79-3.97h2.45l-.79,3.97h5.52l-.41,2.07h-5.52l-2.11,10.6Z"/><path class="cls-1" d="m268.93,37.71c0,.66-.07,1.35-.21,2.07l-2.07,10.32h-2.45l2.07-10.35c.1-.59.17-1.14.17-1.66,0-2.59-1.55-4.07-4.69-4.07-3.87,0-6.52,2.11-7.39,6.35l-1.93,9.73h-2.45l5.11-25.61h2.45l-2.04,10.18c1.73-1.97,4.14-2.86,6.94-2.86,4.11,0,6.49,2.21,6.49,5.9Z"/><path class="cls-1" d="m277.44,48.3c0,.62-.21,1.07-.66,1.83l-2.62,5h-1.66l2.21-5.07c-.59-.28-.97-.9-.97-1.59,0-1.14.9-1.97,1.93-1.97s1.76.76,1.76,1.79Z"/><path class="cls-1" d="m141.35,76.22c-.03.24-.03.48-.03.72,0,3.62,2.07,5.66,6.25,5.66,2.42,0,4.59-.86,5.94-2.28l1.1,1.76c-1.69,1.69-4.42,2.69-7.25,2.69-5.25,0-8.46-2.97-8.46-7.73,0-6.18,4.25-10.73,10.04-10.73,4.8,0,7.9,2.86,7.9,7.7,0,.76-.1,1.52-.24,2.21h-15.26Zm.24-1.83h12.94c.03-.24.03-.45.03-.66,0-3.45-2.31-5.35-5.69-5.35-3.66,0-6.39,2.38-7.28,6.01Z"/><path class="cls-1" d="m170.2,75.39l5.35,9.22h-2.62l-4.31-7.56-7.28,7.56h-2.9l9.15-9.39-5.04-8.77h2.59l4.07,7.11,6.83-7.11h2.83l-8.66,8.94Z"/><path class="cls-1" d="m201.23,73.98c0,6.25-4.35,10.8-10.29,10.8-3.45,0-5.87-1.42-6.9-3.97l-2.07,10.49h-2.45l4.94-24.85h2.35l-.59,2.9c1.73-1.93,4.14-3.04,7.08-3.04,4.66,0,7.94,2.9,7.94,7.66Zm-2.49.14c0-3.56-2.17-5.66-5.97-5.66-4.52,0-7.83,3.56-7.83,8.53,0,3.56,2.17,5.63,5.97,5.63,4.52,0,7.83-3.55,7.83-8.49Z"/><path class="cls-1" d="m205.94,77.08c0-6.18,4.38-10.77,10.49-10.77,5.04,0,8.25,2.97,8.25,7.66,0,6.21-4.38,10.8-10.49,10.8-5.04,0-8.25-3.04-8.25-7.7Zm16.29-2.97c0-3.56-2.17-5.66-5.97-5.66-4.52,0-7.87,3.59-7.87,8.53,0,3.56,2.17,5.63,5.97,5.63,4.52,0,7.87-3.55,7.87-8.49Z"/><path class="cls-1" d="m248.04,72.22c0,.66-.07,1.35-.21,2.07l-2.07,10.32h-2.45l2.07-10.35c.1-.59.17-1.14.17-1.66,0-2.59-1.55-4.07-4.69-4.07-3.87,0-6.52,2.11-7.39,6.35l-1.93,9.73h-2.45l3.59-18.16h2.35l-.59,2.9c1.76-2.07,4.25-3.04,7.11-3.04,4.11,0,6.49,2.21,6.49,5.9Z"/><path class="cls-1" d="m256.04,76.22c-.03.24-.03.48-.03.72,0,3.62,2.07,5.66,6.25,5.66,2.42,0,4.59-.86,5.94-2.28l1.1,1.76c-1.69,1.69-4.42,2.69-7.25,2.69-5.25,0-8.46-2.97-8.46-7.73,0-6.18,4.25-10.73,10.04-10.73,4.8,0,7.9,2.86,7.9,7.7,0,.76-.1,1.52-.24,2.21h-15.26Zm.24-1.83h12.94c.03-.24.03-.45.03-.66,0-3.45-2.31-5.35-5.69-5.35-3.66,0-6.39,2.38-7.28,6.01Z"/><path class="cls-1" d="m294.87,72.22c0,.66-.07,1.35-.21,2.07l-2.07,10.32h-2.45l2.07-10.35c.1-.59.17-1.14.17-1.66,0-2.59-1.55-4.07-4.69-4.07-3.87,0-6.52,2.11-7.39,6.35l-1.93,9.73h-2.45l3.59-18.16h2.35l-.59,2.9c1.76-2.07,4.25-3.04,7.11-3.04,4.11,0,6.49,2.21,6.49,5.9Z"/><path class="cls-1" d="m303.97,79.12c-.07.41-.14.79-.14,1.14,0,1.55.86,2.42,2.62,2.42,1,0,1.97-.31,2.8-.93l.59,1.86c-1.14.86-2.66,1.17-4.04,1.17-2.73,0-4.42-1.55-4.42-4.14,0-.45.03-.93.14-1.42l2.11-10.7h-3.21l.38-2.07h3.24l.79-3.97h2.45l-.79,3.97h5.52l-.41,2.07h-5.52l-2.11,10.6Z"/><path class="cls-1" d="m318.71,66.45h2.45l-3.59,18.16h-2.45l3.59-18.16Zm.62-5.59c0-1.04.79-1.86,1.9-1.86.97,0,1.69.72,1.69,1.55,0,1.1-.83,1.93-1.93,1.93-.97,0-1.66-.76-1.66-1.62Z"/><path class="cls-1" d="m345.82,66.45l-3.62,18.16h-2.35l.59-2.86c-1.73,1.9-4.14,3.04-7.08,3.04-4.66,0-7.9-2.9-7.9-7.7,0-6.21,4.35-10.77,10.25-10.77,3.45,0,5.87,1.42,6.9,3.93l.76-3.8h2.45Zm-4.07,7.66c0-3.56-2.17-5.66-5.97-5.66-4.52,0-7.87,3.59-7.87,8.53,0,3.56,2.17,5.63,5.97,5.63,4.52,0,7.87-3.55,7.87-8.49Z"/><path class="cls-1" d="m355.17,59h2.45l-5.11,25.61h-2.45l5.11-25.61Z"/></g></svg>