<svg version="1.1" id="Vrstva_1" xmlns="http://www.w3.org/2000/svg" x="0" y="0" viewBox="0 0 904.8 199.4" style="enable-background:new 0 0 904.8 199.4" xml:space="preserve"><style>.st0{enable-background:new}.st1{fill:#fff}.st2{fill:#fe754f}</style><g class="st0"><path class="st1" d="M236.8 26.1c6.5 0 12.1 1.4 16.8 4.1 4.7 2.7 8.4 6.6 10.9 11.7 2.6 5 3.8 11.1 3.8 18.1 0 7-1.3 13.1-3.8 18.1-2.6 5-6.2 8.9-10.9 11.7-4.7 2.7-10.3 4.1-16.8 4.1s-12.1-1.4-16.9-4.1c-4.7-2.7-8.4-6.6-11-11.7-2.6-5-3.8-11.1-3.8-18.1 0-7 1.3-13.1 3.8-18.1 2.6-5 6.2-8.9 11-11.7 4.7-2.8 10.3-4.1 16.9-4.1zm0 11.2c-3.7 0-6.8.9-9.4 2.6-2.6 1.7-4.6 4.3-6 7.7-1.4 3.4-2 7.5-2 12.4 0 4.8.7 9 2 12.4 1.4 3.4 3.4 5.9 6 7.7 2.6 1.7 5.8 2.6 9.4 2.6 3.7 0 6.8-.9 9.4-2.6 2.6-1.7 4.6-4.3 5.9-7.7 1.4-3.4 2-7.5 2-12.4 0-4.8-.7-9-2-12.4-1.4-3.4-3.3-5.9-5.9-7.7-2.7-1.7-5.8-2.6-9.4-2.6zM309.8 27.1c5 0 9.4.8 13 2.5 3.6 1.7 6.4 4.1 8.3 7.3 2 3.2 2.9 7 2.9 11.4 0 4.5-1 8.3-2.9 11.4-2 3.2-4.7 5.6-8.3 7.3-3.6 1.7-7.9 2.5-13 2.5H296v23.3h-13.7V27.1h27.5zm-2.1 31.6c4.1 0 7.2-.9 9.3-2.6 2.1-1.8 3.1-4.3 3.1-7.7 0-3.5-1-6-3.1-7.8-2.1-1.7-5.1-2.6-9.3-2.6h-11.8v20.7h11.8zM374.1 27.1c5 0 9.4.8 13 2.5 3.6 1.7 6.4 4.1 8.3 7.3 2 3.2 2.9 7 2.9 11.4 0 4.5-1 8.3-2.9 11.4-2 3.2-4.7 5.6-8.3 7.3-3.6 1.7-7.9 2.5-13 2.5h-13.8v23.3h-13.7V27.1h27.5zm-2 31.6c4.1 0 7.2-.9 9.3-2.6 2.1-1.8 3.1-4.3 3.1-7.7 0-3.5-1-6-3.1-7.8-2.1-1.7-5.1-2.6-9.3-2.6h-11.8v20.7h11.8zM439.3 26.1c6.5 0 12.1 1.4 16.8 4.1 4.7 2.7 8.4 6.6 10.9 11.7 2.6 5 3.8 11.1 3.8 18.1 0 7-1.3 13.1-3.8 18.1-2.6 5-6.2 8.9-10.9 11.7-4.7 2.7-10.3 4.1-16.8 4.1s-12.1-1.4-16.9-4.1c-4.7-2.7-8.4-6.6-11-11.7-2.6-5-3.8-11.1-3.8-18.1 0-7 1.3-13.1 3.8-18.1 2.6-5 6.2-8.9 11-11.7 4.8-2.8 10.4-4.1 16.9-4.1zm0 11.2c-3.7 0-6.8.9-9.4 2.6-2.6 1.7-4.6 4.3-6 7.7-1.4 3.4-2 7.5-2 12.4 0 4.8.7 9 2 12.4 1.4 3.4 3.4 5.9 6 7.7 2.6 1.7 5.8 2.6 9.4 2.6 3.7 0 6.8-.9 9.4-2.6 2.6-1.7 4.6-4.3 5.9-7.7 1.4-3.4 2-7.5 2-12.4 0-4.8-.7-9-2-12.4-1.4-3.4-3.3-5.9-5.9-7.7-2.6-1.7-5.7-2.6-9.4-2.6zM513.7 27.1c7.4 0 13.3 1.8 17.5 5.4 4.2 3.6 6.4 8.4 6.4 14.4 0 6.4-2.1 11.4-6.4 14.8-4.3 3.4-10.1 5.1-17.4 5.1l-1.4.8h-14.1v25.2h-13.5V27.1h28.9zm-1.6 30.1c3.9 0 6.7-.8 8.6-2.3 1.9-1.6 2.8-4 2.8-7.2 0-3.3-.9-5.7-2.8-7.2-1.9-1.6-4.8-2.3-8.6-2.3h-13.8v19.1h13.8zm8.1 2.9 21.3 32.8h-15.4L508.4 64l11.8-3.9zM603.3 27.1v11.1h-22v54.7h-13.7V38.1h-22.1v-11h57.8zM669.5 27.1V67c0 9-2.4 15.7-7.2 20.2s-11.8 6.7-20.9 6.7-16.1-2.2-20.9-6.7-7.2-11.2-7.2-20.2V27.1H627v39.3c0 5.5 1.2 9.6 3.5 12.3 2.4 2.7 6 4 10.8 4 4.8 0 8.4-1.3 10.8-4 2.3-2.7 3.5-6.7 3.5-12.3V27.1h13.9zM741.8 27.1v65.8H726l-23-38.7-5.7-10.8h-.1l.4 11.4v38.1h-12.4V27.1h15.6l23 38.6 5.7 10.9h.2l-.4-11.4V27.1h12.5zM772.7 27.1v65.8H759V27.1h13.7zM841.8 27.1v11.1h-22v54.7H806V38.1h-22.1v-11h57.9zM904.8 27.1l-23.3 41.1v24.6h-13.7V68.2l-23.3-41.1H859l10.6 19.6 5 10.4 5.1-10.4 10.6-19.6h14.5z"/></g><g class="st0"><path class="st1" d="M236.4 140.2h-24.5v13.7H231v4.8h-19.1v19.1h-5.1v-42.4h29.7v4.8zM310.3 135.4V162c0 5.4-1.4 9.5-4.3 12.3-2.9 2.8-7 4.1-12.3 4.1-5.3 0-9.4-1.4-12.3-4.1s-4.3-6.9-4.3-12.3v-26.6h5.1v25.3c0 4.4.9 7.7 2.8 9.8 1.9 2.1 4.8 3.1 8.7 3.1 3.9 0 6.8-1 8.7-3.1 1.9-2.1 2.8-5.3 2.8-9.8v-25.3h5.1zM388.5 135.4v42.4h-6.4l-17.7-28.4-4.5-8h-.1l.3 6.4v29.9h-4.9v-42.4h6.4l17.7 28.2 4.6 8.2h.1l-.3-6.5v-29.9h4.8zM448.1 135.4c6.6 0 11.8 1.8 15.6 5.5 3.8 3.7 5.7 8.9 5.7 15.7 0 6.8-1.9 12-5.7 15.7-3.8 3.7-9 5.5-15.6 5.5h-13.7v-42.4h13.7zm.5 37.5c4.8 0 8.6-1.4 11.3-4.3 2.7-2.9 4.1-6.9 4.1-12s-1.4-9.1-4.1-12c-2.7-2.9-6.5-4.3-11.3-4.3h-9.1V173h9.1z"/></g><path class="st2" d="M23.9 66.7 0 55.9 61.8 0v178.5H23.9M76.9 19.6v39.6h37.2l32.4-39.6zM76.9 111.8l32.5-39.6H76.9z"/></svg>