<?xml version="1.0" encoding="UTF-8"?>
<svg xmlns="http://www.w3.org/2000/svg" width="216" height="33" viewBox="0 0 216 33" fill="none">
  <path d="M39.628 24V8.6H49V10.118H41.476V15.53H47.878V17.026H41.476V24H39.628ZM54.372 24.264C53.0813 24.264 52.0546 23.8753 51.292 23.098C50.5293 22.306 50.148 21.096 50.148 19.468V13.088H51.996V19.27C51.996 21.5433 52.9273 22.68 54.79 22.68C55.7433 22.68 56.528 22.3427 57.144 21.668C57.7746 20.9787 58.09 20.0033 58.09 18.742V13.088H59.938V24H58.266L58.134 22.042C57.7966 22.7313 57.2906 23.274 56.616 23.67C55.956 24.066 55.208 24.264 54.372 24.264ZM62.0998 24V8.16H63.9478V24H62.0998ZM66.0968 24V8.16H67.9448V24H66.0968ZM80.052 24.264C78.9226 24.264 77.94 24.0587 77.104 23.648C76.268 23.2373 75.6226 22.6653 75.168 21.932C74.7133 21.1987 74.486 20.348 74.486 19.38H76.422C76.422 19.9813 76.5613 20.5387 76.84 21.052C77.1186 21.5507 77.522 21.954 78.05 22.262C78.5926 22.5553 79.26 22.702 80.052 22.702C81.0933 22.702 81.9 22.4527 82.472 21.954C83.044 21.4553 83.33 20.832 83.33 20.084C83.33 19.468 83.198 18.9767 82.934 18.61C82.67 18.2287 82.3106 17.9207 81.856 17.686C81.416 17.4513 80.9026 17.246 80.316 17.07C79.744 16.894 79.1426 16.696 78.512 16.476C77.324 16.0653 76.444 15.5593 75.872 14.958C75.3 14.342 75.014 13.5427 75.014 12.56C74.9993 11.7387 75.19 11.0127 75.586 10.382C75.982 9.73667 76.5393 9.238 77.258 8.886C77.9913 8.51933 78.8566 8.336 79.854 8.336C80.8366 8.336 81.6873 8.51933 82.406 8.886C83.1393 9.25267 83.704 9.75867 84.1 10.404C84.5106 11.0493 84.7233 11.7827 84.738 12.604H82.802C82.802 12.1787 82.692 11.7607 82.472 11.35C82.252 10.9247 81.9146 10.58 81.46 10.316C81.02 10.052 80.4626 9.92 79.788 9.92C78.952 9.90533 78.2626 10.118 77.72 10.558C77.192 10.998 76.928 11.6067 76.928 12.384C76.928 13.044 77.1113 13.55 77.478 13.902C77.8593 14.254 78.3873 14.5473 79.062 14.782C79.7366 15.002 80.514 15.2587 81.394 15.552C82.1273 15.816 82.7873 16.124 83.374 16.476C83.9606 16.828 84.4153 17.2827 84.738 17.84C85.0753 18.3973 85.244 19.1087 85.244 19.974C85.244 20.7073 85.0533 21.404 84.672 22.064C84.2906 22.7093 83.7113 23.2373 82.934 23.648C82.1713 24.0587 81.2106 24.264 80.052 24.264ZM91.1867 24C90.1894 24 89.4047 23.758 88.8327 23.274C88.2607 22.79 87.9747 21.9173 87.9747 20.656V14.65H86.0827V13.088H87.9747L88.2167 10.47H89.8227V13.088H93.0347V14.65H89.8227V20.656C89.8227 21.3453 89.9621 21.8147 90.2407 22.064C90.5194 22.2987 91.0107 22.416 91.7147 22.416H92.8587V24H91.1867ZM98.1325 24.264C97.2232 24.264 96.4679 24.11 95.8665 23.802C95.2652 23.494 94.8179 23.0833 94.5245 22.57C94.2312 22.0567 94.0845 21.4993 94.0845 20.898C94.0845 19.7833 94.5099 18.9253 95.3605 18.324C96.2112 17.7227 97.3699 17.422 98.8365 17.422H101.785V17.29C101.785 16.3367 101.535 15.618 101.037 15.134C100.538 14.6353 99.8705 14.386 99.0345 14.386C98.3159 14.386 97.6925 14.5693 97.1645 14.936C96.6512 15.288 96.3285 15.8087 96.1965 16.498H94.3045C94.3779 15.706 94.6419 15.0387 95.0965 14.496C95.5659 13.9533 96.1452 13.5427 96.8345 13.264C97.5239 12.9707 98.2572 12.824 99.0345 12.824C100.56 12.824 101.704 13.2347 102.467 14.056C103.244 14.8627 103.633 15.9407 103.633 17.29V24H101.983L101.873 22.042C101.565 22.658 101.11 23.186 100.509 23.626C99.9219 24.0513 99.1299 24.264 98.1325 24.264ZM98.4185 22.702C99.1225 22.702 99.7239 22.5187 100.223 22.152C100.736 21.7853 101.125 21.3087 101.389 20.722C101.653 20.1353 101.785 19.5193 101.785 18.874V18.852H98.9905C97.9052 18.852 97.1352 19.0427 96.6805 19.424C96.2405 19.7907 96.0205 20.2527 96.0205 20.81C96.0205 21.382 96.2259 21.844 96.6365 22.196C97.0619 22.5333 97.6559 22.702 98.4185 22.702ZM110.541 24.264C109.5 24.264 108.561 24.0293 107.725 23.56C106.904 23.076 106.251 22.4087 105.767 21.558C105.298 20.6927 105.063 19.688 105.063 18.544C105.063 17.4 105.298 16.4027 105.767 15.552C106.251 14.6867 106.904 14.0193 107.725 13.55C108.561 13.066 109.5 12.824 110.541 12.824C111.832 12.824 112.917 13.1613 113.797 13.836C114.692 14.5107 115.256 15.4127 115.491 16.542H113.599C113.452 15.8673 113.093 15.3467 112.521 14.98C111.949 14.5987 111.282 14.408 110.519 14.408C109.903 14.408 109.324 14.562 108.781 14.87C108.238 15.178 107.798 15.64 107.461 16.256C107.124 16.872 106.955 17.6347 106.955 18.544C106.955 19.4533 107.124 20.216 107.461 20.832C107.798 21.448 108.238 21.9173 108.781 22.24C109.324 22.548 109.903 22.702 110.519 22.702C111.282 22.702 111.949 22.5187 112.521 22.152C113.093 21.7707 113.452 21.2353 113.599 20.546H115.491C115.271 21.646 114.714 22.5407 113.819 23.23C112.924 23.9193 111.832 24.264 110.541 24.264ZM117.192 24V8.16H119.04V17.686L123.506 13.088H125.772L120.932 18.016L126.388 24H124.034L119.04 18.346V24H117.192ZM137.092 24L131.306 8.6H133.308L138.17 22.042L143.076 8.6H145.034L139.248 24H137.092ZM149.622 24.264C148.58 24.264 147.656 24.0293 146.85 23.56C146.043 23.076 145.405 22.4087 144.936 21.558C144.481 20.7073 144.254 19.7027 144.254 18.544C144.254 17.4 144.481 16.4027 144.936 15.552C145.39 14.6867 146.021 14.0193 146.828 13.55C147.649 13.066 148.595 12.824 149.666 12.824C150.722 12.824 151.631 13.066 152.394 13.55C153.171 14.0193 153.765 14.6427 154.176 15.42C154.586 16.1973 154.792 17.0333 154.792 17.928C154.792 18.0893 154.784 18.2507 154.77 18.412C154.77 18.5733 154.77 18.7567 154.77 18.962H146.08C146.124 19.798 146.314 20.4947 146.652 21.052C147.004 21.5947 147.436 22.0053 147.95 22.284C148.478 22.5627 149.035 22.702 149.622 22.702C150.384 22.702 151.022 22.526 151.536 22.174C152.049 21.822 152.423 21.3453 152.658 20.744H154.484C154.19 21.756 153.626 22.5993 152.79 23.274C151.968 23.934 150.912 24.264 149.622 24.264ZM149.622 14.386C148.742 14.386 147.957 14.6573 147.268 15.2C146.593 15.728 146.204 16.5053 146.102 17.532H152.966C152.922 16.5493 152.584 15.7793 151.954 15.222C151.323 14.6647 150.546 14.386 149.622 14.386ZM156.361 24V13.088H158.033L158.143 15.046C158.495 14.3567 159.001 13.814 159.661 13.418C160.321 13.022 161.069 12.824 161.905 12.824C163.196 12.824 164.223 13.22 164.985 14.012C165.763 14.7893 166.151 15.992 166.151 17.62V24H164.303V17.818C164.303 15.5447 163.365 14.408 161.487 14.408C160.549 14.408 159.764 14.7527 159.133 15.442C158.517 16.1167 158.209 17.0847 158.209 18.346V24H156.361ZM172.383 24C171.386 24 170.601 23.758 170.029 23.274C169.457 22.79 169.171 21.9173 169.171 20.656V14.65H167.279V13.088H169.171L169.413 10.47H171.019V13.088H174.231V14.65H171.019V20.656C171.019 21.3453 171.158 21.8147 171.437 22.064C171.716 22.2987 172.207 22.416 172.911 22.416H174.055V24H172.383ZM179.681 24.264C178.39 24.264 177.364 23.8753 176.601 23.098C175.838 22.306 175.457 21.096 175.457 19.468V13.088H177.305V19.27C177.305 21.5433 178.236 22.68 180.099 22.68C181.052 22.68 181.837 22.3427 182.453 21.668C183.084 20.9787 183.399 20.0033 183.399 18.742V13.088H185.247V24H183.575L183.443 22.042C183.106 22.7313 182.6 23.274 181.925 23.67C181.265 24.066 180.517 24.264 179.681 24.264ZM187.409 24V13.088H189.081L189.235 15.178C189.572 14.4593 190.085 13.8873 190.775 13.462C191.464 13.0367 192.315 12.824 193.327 12.824V14.76H192.821C192.175 14.76 191.581 14.8773 191.039 15.112C190.496 15.332 190.063 15.7133 189.741 16.256C189.418 16.7987 189.257 17.5467 189.257 18.5V24H187.409ZM199.019 24.264C197.977 24.264 197.053 24.0293 196.247 23.56C195.44 23.076 194.802 22.4087 194.333 21.558C193.878 20.7073 193.651 19.7027 193.651 18.544C193.651 17.4 193.878 16.4027 194.333 15.552C194.787 14.6867 195.418 14.0193 196.225 13.55C197.046 13.066 197.992 12.824 199.063 12.824C200.119 12.824 201.028 13.066 201.791 13.55C202.568 14.0193 203.162 14.6427 203.573 15.42C203.983 16.1973 204.189 17.0333 204.189 17.928C204.189 18.0893 204.181 18.2507 204.167 18.412C204.167 18.5733 204.167 18.7567 204.167 18.962H195.477C195.521 19.798 195.711 20.4947 196.049 21.052C196.401 21.5947 196.833 22.0053 197.347 22.284C197.875 22.5627 198.432 22.702 199.019 22.702C199.781 22.702 200.419 22.526 200.933 22.174C201.446 21.822 201.82 21.3453 202.055 20.744H203.881C203.587 21.756 203.023 22.5993 202.187 23.274C201.365 23.934 200.309 24.264 199.019 24.264ZM199.019 14.386C198.139 14.386 197.354 14.6573 196.665 15.2C195.99 15.728 195.601 16.5053 195.499 17.532H202.363C202.319 16.5493 201.981 15.7793 201.351 15.222C200.72 14.6647 199.943 14.386 199.019 14.386ZM209.938 24.264C208.633 24.264 207.547 23.934 206.682 23.274C205.817 22.614 205.311 21.7193 205.164 20.59H207.056C207.173 21.162 207.474 21.6607 207.958 22.086C208.457 22.4967 209.124 22.702 209.96 22.702C210.737 22.702 211.309 22.5407 211.676 22.218C212.043 21.8807 212.226 21.4847 212.226 21.03C212.226 20.37 211.984 19.93 211.5 19.71C211.031 19.49 210.363 19.292 209.498 19.116C208.911 18.9987 208.325 18.83 207.738 18.61C207.151 18.39 206.66 18.082 206.264 17.686C205.868 17.2753 205.67 16.74 205.67 16.08C205.67 15.1267 206.022 14.3493 206.726 13.748C207.445 13.132 208.413 12.824 209.63 12.824C210.789 12.824 211.735 13.1173 212.468 13.704C213.216 14.276 213.649 15.0973 213.766 16.168H211.94C211.867 15.6107 211.625 15.178 211.214 14.87C210.818 14.5473 210.283 14.386 209.608 14.386C208.948 14.386 208.435 14.5253 208.068 14.804C207.716 15.0827 207.54 15.4493 207.54 15.904C207.54 16.344 207.767 16.6887 208.222 16.938C208.691 17.1873 209.322 17.4 210.114 17.576C210.789 17.7227 211.427 17.906 212.028 18.126C212.644 18.3313 213.143 18.6467 213.524 19.072C213.92 19.4827 214.118 20.084 214.118 20.876C214.133 21.8587 213.759 22.6727 212.996 23.318C212.248 23.9487 211.229 24.264 209.938 24.264Z" fill="black"></path>
  <path fill-rule="evenodd" clip-rule="evenodd" d="M11.5049 7.71204H2.62766C1.9702 7.71204 1.43723 8.23272 1.43723 8.875C1.43723 9.51729 1.9702 10.038 2.62766 10.038H11.5049C12.1624 10.038 12.6954 9.51729 12.6954 8.875C12.6954 8.23272 12.1624 7.71204 11.5049 7.71204ZM2.62766 6.88135C1.50059 6.88135 0.586914 7.77394 0.586914 8.875C0.586914 9.97607 1.50059 10.8687 2.62766 10.8687H11.5049C12.632 10.8687 13.5457 9.97607 13.5457 8.875C13.5457 7.77394 12.632 6.88135 11.5049 6.88135H2.62766Z" fill="black"></path>
  <path fill-rule="evenodd" clip-rule="evenodd" d="M25.959 7.71204H17.0818C16.4243 7.71204 15.8913 8.23272 15.8913 8.875C15.8913 9.51729 16.4243 10.038 17.0818 10.038H25.959C26.6165 10.038 27.1495 9.51729 27.1495 8.875C27.1495 8.23272 26.6165 7.71204 25.959 7.71204ZM17.0818 6.88135C15.9547 6.88135 15.041 7.77394 15.041 8.875C15.041 9.97607 15.9547 10.8687 17.0818 10.8687H25.959C27.0861 10.8687 27.9998 9.97607 27.9998 8.875C27.9998 7.77394 27.0861 6.88135 25.959 6.88135H17.0818Z" fill="black"></path>
  <path fill-rule="evenodd" clip-rule="evenodd" d="M25.959 23.6613H17.0818C16.4243 23.6613 15.8913 24.1819 15.8913 24.8242C15.8913 25.4665 16.4243 25.9872 17.0818 25.9872H25.959C26.6165 25.9872 27.1495 25.4665 27.1495 24.8242C27.1495 24.1819 26.6165 23.6613 25.959 23.6613ZM17.0818 22.8306C15.9547 22.8306 15.041 23.7232 15.041 24.8242C15.041 25.9253 15.9547 26.8179 17.0818 26.8179H25.959C27.0861 26.8179 27.9998 25.9253 27.9998 24.8242C27.9998 23.7232 27.0861 22.8306 25.959 22.8306H17.0818Z" fill="black"></path>
  <path fill-rule="evenodd" clip-rule="evenodd" d="M8.77444 15.6866H2.61688C1.96289 15.6866 1.43273 16.2073 1.43273 16.8496C1.43273 17.4919 1.96289 18.0126 2.61688 18.0126H8.77444C9.42842 18.0126 9.95858 17.4919 9.95858 16.8496C9.95858 16.2073 9.42842 15.6866 8.77444 15.6866ZM2.61688 14.856C1.49576 14.856 0.586914 15.7485 0.586914 16.8496C0.586914 17.9507 1.49576 18.8433 2.61688 18.8433H8.77444C9.89555 18.8433 10.8044 17.9507 10.8044 16.8496C10.8044 15.7485 9.89555 14.856 8.77444 14.856H2.61688Z" fill="black"></path>
  <path fill-rule="evenodd" clip-rule="evenodd" d="M25.959 15.6866H17.0818C16.4243 15.6866 15.8913 16.2073 15.8913 16.8496C15.8913 17.4919 16.4243 18.0126 17.0818 18.0126H25.959C26.6165 18.0126 27.1495 17.4919 27.1495 16.8496C27.1495 16.2073 26.6165 15.6866 25.959 15.6866ZM17.0818 14.856C15.9547 14.856 15.041 15.7485 15.041 16.8496C15.041 17.9507 15.9547 18.8433 17.0818 18.8433H25.959C27.0861 18.8433 27.9998 17.9507 27.9998 16.8496C27.9998 15.7485 27.0861 14.856 25.959 14.856H17.0818Z" fill="black"></path>
  <path fill-rule="evenodd" clip-rule="evenodd" d="M2.58057 14.025C3.22286 14.025 3.74354 13.5044 3.74354 12.8621C3.74354 12.2198 3.22286 11.6991 2.58057 11.6991C1.93828 11.6991 1.4176 12.2198 1.4176 12.8621C1.4176 13.5044 1.93828 14.025 2.58057 14.025ZM2.58057 14.8557C3.68164 14.8557 4.57423 13.9631 4.57423 12.8621C4.57423 11.761 3.68164 10.8684 2.58057 10.8684C1.4795 10.8684 0.586914 11.761 0.586914 12.8621C0.586914 13.9631 1.4795 14.8557 2.58057 14.8557Z" fill="black"></path>
  <path fill-rule="evenodd" clip-rule="evenodd" d="M17.0347 14.025C17.677 14.025 18.1976 13.5044 18.1976 12.8621C18.1976 12.2198 17.677 11.6991 17.0347 11.6991C16.3924 11.6991 15.8717 12.2198 15.8717 12.8621C15.8717 13.5044 16.3924 14.025 17.0347 14.025ZM17.0347 14.8557C18.1357 14.8557 19.0283 13.9631 19.0283 12.8621C19.0283 11.761 18.1357 10.8684 17.0347 10.8684C15.9336 10.8684 15.041 11.761 15.041 12.8621C15.041 13.9631 15.9336 14.8557 17.0347 14.8557Z" fill="black"></path>
  <path fill-rule="evenodd" clip-rule="evenodd" d="M2.58057 21.9999C3.22286 21.9999 3.74354 21.4792 3.74354 20.8369C3.74354 20.1946 3.22286 19.674 2.58057 19.674C1.93828 19.674 1.4176 20.1946 1.4176 20.8369C1.4176 21.4792 1.93828 21.9999 2.58057 21.9999ZM2.58057 22.8306C3.68164 22.8306 4.57423 21.938 4.57423 20.8369C4.57423 19.7359 3.68164 18.8433 2.58057 18.8433C1.4795 18.8433 0.586914 19.7359 0.586914 20.8369C0.586914 21.938 1.4795 22.8306 2.58057 22.8306Z" fill="black"></path>
  <path fill-rule="evenodd" clip-rule="evenodd" d="M26.0054 21.9999C26.6477 21.9999 27.1683 21.4792 27.1683 20.8369C27.1683 20.1946 26.6477 19.674 26.0054 19.674C25.3631 19.674 24.8424 20.1946 24.8424 20.8369C24.8424 21.4792 25.3631 21.9999 26.0054 21.9999ZM26.0054 22.8306C27.1064 22.8306 27.999 21.938 27.999 20.8369C27.999 19.7359 27.1064 18.8433 26.0054 18.8433C24.9043 18.8433 24.0117 19.7359 24.0117 20.8369C24.0117 21.938 24.9043 22.8306 26.0054 22.8306Z" fill="black"></path>
  <path fill-rule="evenodd" clip-rule="evenodd" d="M2.58057 25.9872C3.22286 25.9872 3.74354 25.4665 3.74354 24.8242C3.74354 24.1819 3.22286 23.6613 2.58057 23.6613C1.93828 23.6613 1.4176 24.1819 1.4176 24.8242C1.4176 25.4665 1.93828 25.9872 2.58057 25.9872ZM2.58057 26.8179C3.68164 26.8179 4.57423 25.9253 4.57423 24.8242C4.57423 23.7232 3.68164 22.8306 2.58057 22.8306C1.4795 22.8306 0.586914 23.7232 0.586914 24.8242C0.586914 25.9253 1.4795 26.8179 2.58057 26.8179Z" fill="black"></path>
</svg>
