<?xml version="1.0" encoding="utf-8"?>
<!-- Generator: Adobe Illustrator 28.3.0, SVG Export Plug-In . SVG Version: 6.00 Build 0)  -->
<svg version="1.1" id="Layer_1" xmlns="http://www.w3.org/2000/svg" xmlns:xlink="http://www.w3.org/1999/xlink" x="0px" y="0px"
	 viewBox="0 0 99 108" style="enable-background:new 0 0 99 108;" xml:space="preserve">
<style type="text/css">
	.st0{fill:none;}
	.st1{fill:#0A58C3;}
	.st2{fill:#FFFFFF;}
</style>
<g>
	<g>
		<path class="st0" d="M49.5,10c2.6,0,5.1,0.2,7.6,0.6c0-0.1,0.1-0.2,0.1-0.3c-2.5-0.4-5.1-0.7-7.7-0.7c-13.5,0-25.7,5.9-34.1,15.2
			C23.9,15.7,36,10,49.5,10z"/>
		<path class="st0" d="M83.6,24.8c-4.9-5.5-11.2-9.8-18.2-12.4c0,0.1-0.1,0.2-0.1,0.2C72.3,15.2,78.5,19.4,83.6,24.8z"/>
		<path class="st0" d="M60,11.2c0-0.1,0.1-0.2,0.1-0.3c0,0,0,0,0,0C60,11,60,11.1,60,11.2C60,11.2,60,11.2,60,11.2z"/>
		<path class="st1" d="M38.6,75.8C38.6,75.8,38.6,75.8,38.6,75.8c-0.7,0-3.9,0.2-5.4,0.2c0,0,0,0,0,0C34.7,76,37.8,75.8,38.6,75.8z"
			/>
		<path class="st1" d="M39.6,90.1c-0.2-4.4-1.1-8.6-1.8-11.4c0,0,0,0,0,0C38.5,81.5,39.4,85.7,39.6,90.1z"/>
		<path class="st1" d="M37,90.9c0.1,2.9-0.2,5.8-1.2,8.4c0,0,0,0,0,0C36.8,96.7,37.1,93.7,37,90.9z"/>
		<path class="st1" d="M31.8,73.4c0,0,0.1,0,0.4,0C31.9,73.4,31.8,73.4,31.8,73.4L31.8,73.4L31.8,73.4L31.8,73.4
			c-4.7,0.1-14.8,1-21.4,5.8c0,0,0,0,0,0C16.9,74.4,27.1,73.6,31.8,73.4L31.8,73.4z"/>
		<path class="st1" d="M65.2,12.7c-2.1,5.3-1,13.5,0.8,19.8c6.7-0.2,15-1.7,19.4-5.4c-0.6-0.8-1.2-1.5-1.9-2.2
			C78.5,19.4,72.3,15.2,65.2,12.7z"/>
		<path class="st1" d="M66.9,35.3C66.9,35.3,66.9,35.3,66.9,35.3l0.7,2.5l0,0c0,0,0,0,0,0c5.2-0.2,14.9-1.4,21-6.4c0,0,0,0,0,0
			c-6.1,4.9-15.8,6.1-21,6.4L66.9,35.3z"/>
		<path class="st1" d="M66.2,68L66,68.2c-5.8,7.9-17.6,9.9-25.3,10.3c1.5,5.9,2.9,14.6,0.5,21.9c2.7,0.5,5.5,0.8,8.3,0.8
			c25.3,0,45.8-20.5,45.8-45.8c0-7.7-1.9-15-5.3-21.4c-6.3,4.9-15.4,6.3-21.7,6.7C70.3,48.2,72,60.1,66.2,68z"/>
		<path class="st1" d="M32.1,78.9C25.8,79,18,80.4,13.5,83.8c5.1,6.5,11.9,11.5,19.7,14.5C35,93,34,85.1,32.1,78.9z"/>
		<path class="st1" d="M34.3,45.1l0.2-0.3c5.4-7.4,17.6-8.9,23.7-9.2c0,0,0,0,0,0c-6.1,0.3-18.3,1.8-23.7,9.2L34.3,45.1
			c-3,4.1-3.6,9.8-3.3,15C30.7,54.9,31.3,49.3,34.3,45.1z"/>
		<path class="st1" d="M32,43.4l0.2-0.3c5.8-7.9,17.6-9.9,25.3-10.3c-1.5-6-2.9-14.8-0.4-22.2c-2.5-0.4-5-0.6-7.6-0.6
			C36,10,23.9,15.7,15.4,24.8C8.1,32.9,3.7,43.7,3.7,55.5c0,7.7,1.9,14.9,5.2,21.3c6.2-4.4,14.9-5.8,20.9-6.1
			C27.9,63.2,26.2,51.3,32,43.4z"/>
		<path class="st1" d="M35.4,70.4C35.4,70.4,35.4,70.4,35.4,70.4c-0.9,0-1.9,0.1-2.6,0.1c0,0,0,0,0,0C33.5,70.5,34.5,70.4,35.4,70.4
			C35.4,70.4,35.4,70.4,35.4,70.4z"/>
		<path class="st1" d="M37.3,73.2C37.3,73.2,37.3,73.2,37.3,73.2L37.3,73.2C37.3,73.2,37.3,73.2,37.3,73.2z"/>
		<path class="st1" d="M62.2,39.1C62.2,39.1,62.2,39.1,62.2,39.1C62.2,39.2,62.2,39.2,62.2,39.1C62.2,39.2,62.2,39.2,62.2,39.1
			L62.2,39.1c1,3,5.2,17.8-0.4,25.6L61.6,65c-5.7,7.8-21.1,8.2-24.2,8.2h0c3.1,0,18.5-0.4,24.2-8.2l0.2-0.3
			C67.4,57,63.2,42.2,62.2,39.1C62.2,39.2,62.2,39.2,62.2,39.1c-0.7-2.4-1.4-5-1.5-5.3c0,0,0,0,0,0c0,0,0,0,0,0
			C59.4,29.2,57.1,19,60,11.2c0,0,0,0,0,0c-2.8,7.8-0.5,18,0.8,22.6c0,0,0,0,0,0c0,0,0,0,0,0c0,0,0,0,0,0c0,0,0,0,0,0
			C60.8,34.1,61.5,36.8,62.2,39.1z"/>
		<path class="st1" d="M59.8,41.1c-7.6,0.2-17.2,2.1-20.8,7l-0.2,0.3c-3.6,4.9-2.5,14.7-0.3,22c7.6-0.2,17.2-2.1,20.8-7l0.2-0.3
			C63,58.1,61.9,48.3,59.8,41.1z"/>
		<path class="st2" d="M67.6,37.9l0.3,1.1l-2.8,0.8l0,0c0,0,0,0,0,0c1.5,5.3,4.5,18.6-1.2,26.5l-0.2,0.3c-5.7,7.9-19.3,9.1-24.9,9.2
			c0,0-0.1,0-0.1,0c0,0,0,0-0.1,0c0,0,0,0,0,0c0,0,0,0,0,0c0,0,0,0,0,0c0,0,0,0,0.1,0c0,0,0.1,0,0.1,0l0.1,2.9c0,0-0.5,0-1.1,0.1
			c0.7,2.8,1.6,7,1.8,11.4c0.1,3.3-0.2,6.7-1.2,9.8c0.9,0.2,1.9,0.4,2.8,0.6c2.4-7.3,1-16-0.5-21.9c7.6-0.4,19.5-2.4,25.3-10.3
			l0.2-0.3c5.8-7.9,4.1-19.8,2.2-27.2c6.3-0.4,15.4-1.8,21.7-6.7c-0.5-0.9-0.9-1.7-1.5-2.6C82.5,36.5,72.8,37.6,67.6,37.9
			C67.6,37.9,67.6,37.9,67.6,37.9z"/>
		<path class="st2" d="M62.2,39.1C62.2,39.1,62.2,39.1,62.2,39.1C62.2,39.2,62.2,39.2,62.2,39.1C62.2,39.2,62.2,39.2,62.2,39.1
			C62.2,39.1,62.2,39.1,62.2,39.1z"/>
		<path class="st2" d="M35.1,78.8C35.1,78.8,35.1,78.8,35.1,78.8c-0.7,0-1.4,0.1-1.9,0.1L33.2,76h0c0,0,0,0,0.1,0c0,0,0,0,0,0
			c0,0,0,0,0,0h0c-2.7,0-14.6,0.3-21.4,5.4c0.5,0.8,1.1,1.6,1.7,2.3c4.5-3.4,12.3-4.7,18.7-4.9c1.8,6.2,2.9,14.1,1,19.4
			c0.9,0.3,1.8,0.7,2.7,1c0.9-2.6,1.2-5.5,1.2-8.4C36.9,86.1,35.8,81.5,35.1,78.8z"/>
		<path class="st2" d="M57.5,32.8c-7.6,0.4-19.5,2.4-25.3,10.3L32,43.4c-5.8,7.9-4.1,19.8-2.2,27.2c-6,0.3-14.7,1.7-20.9,6.1
			c0.5,0.9,0.9,1.7,1.4,2.5c6.6-4.8,16.8-5.7,21.4-5.8h0l-0.1-2.9c0,0,0.5,0,1.2-0.1c0,0,0,0,0,0c0,0,0,0,0,0c0,0,0,0,0,0
			c-0.7-2.6-1.5-6.3-1.8-10.4c-0.3-5.2,0.3-10.9,3.3-15l0.2-0.3c5.4-7.4,17.6-8.9,23.7-9.2c-0.2-0.7-0.3-1.1-0.3-1.1l2.8-0.7
			c0,0,0,0,0,0c0,0,0,0,0,0c0,0,0,0,0,0c0,0,0,0,0,0c-1.3-4.5-3.6-14.8-0.8-22.6c0-0.1,0.1-0.2,0.1-0.3c-1-0.2-1.9-0.4-2.9-0.6
			c0,0.1-0.1,0.2-0.1,0.3C54.5,18,55.9,26.8,57.5,32.8z"/>
		<path class="st2" d="M61.6,65l0.2-0.3c5.7-7.8,1.4-22.5,0.5-25.5L59.5,40c-0.2-0.6-0.3-1.2-0.5-1.8c0,0,0,0,0,0
			c-5.2,0.2-17.4,1.4-22.3,8.2l-0.2,0.3c-4.9,6.7-2.4,18.7-1,23.8c0,0,0,0,0,0c0,0,0,0,0,0c0.7,0,1.3-0.1,1.9-0.1l0.1,2.9
			C40.5,73.2,55.9,72.8,61.6,65z M59.2,63.3c-3.6,4.9-13.2,6.8-20.8,7c-2.1-7.3-3.3-17,0.3-22l0.2-0.3c3.6-4.9,13.2-6.8,20.8-7
			c2.2,7.3,3.3,17-0.3,22L59.2,63.3z"/>
		<path class="st2" d="M63.6,34.3l2.8-0.8l0.5,1.8v0c0,0,0,0,0,0l0,0c4.6-0.2,14.6-1.2,20.3-6c-0.6-0.8-1.1-1.6-1.7-2.3
			c-4.3,3.8-12.6,5.3-19.4,5.4c-1.9-6.3-2.9-14.5-0.8-19.8c0-0.1,0.1-0.2,0.1-0.2c-0.9-0.3-1.8-0.6-2.8-0.9
			C59.3,19.6,62.7,31.6,63.6,34.3z"/>
		<path class="st2" d="M39.6,90.1c-0.2-4.4-1.1-8.6-1.8-11.4c0,0,0,0,0,0c-0.7,0-1.7,0.1-2.6,0.1c0.7,2.7,1.8,7.3,1.9,12
			c0.1,2.9-0.2,5.8-1.2,8.4c0.8,0.3,1.7,0.5,2.5,0.7C39.4,96.8,39.7,93.4,39.6,90.1z"/>
		<path class="st2" d="M35.4,70.4c-1.4-5-3.9-17,1-23.8l0.2-0.3c4.9-6.7,17.1-8,22.3-8.2c-0.3-1-0.5-1.9-0.7-2.5c0,0,0,0,0,0
			c-6.1,0.3-18.3,1.8-23.7,9.2l-0.2,0.3c-3,4.1-3.6,9.8-3.3,15c0.3,4,1.1,7.8,1.8,10.4c0,0,0,0,0,0C33.5,70.5,34.5,70.4,35.4,70.4
			C35.4,70.4,35.4,70.4,35.4,70.4z"/>
		<path class="st2" d="M66.9,35.3l0.7,2.5c5.2-0.2,14.9-1.4,21-6.4c-0.5-0.7-0.9-1.5-1.4-2.2C81.5,34.2,71.5,35.2,66.9,35.3
			L66.9,35.3z"/>
		<path class="st2" d="M60.7,33.8C60.7,33.8,60.7,33.8,60.7,33.8C60.7,33.8,60.8,33.8,60.7,33.8c0.1,0.4,0.8,3,1.5,5.4c0,0,0,0,0,0
			c0.9,3,5.2,17.8-0.5,25.5L61.6,65c-5.7,7.8-21.1,8.2-24.2,8.2h0h0c0,0,0,0-0.1,0c-1.6,0-4.2,0.2-5.1,0.2c-0.2,0-0.4,0-0.4,0h0
			c-4.6,0.1-14.8,1-21.4,5.8c0.4,0.7,0.9,1.5,1.4,2.2c6.8-5.1,18.7-5.4,21.4-5.4h0c0,0,0,0,0,0c1.4,0,4.6-0.2,5.4-0.2c0,0,0,0,0,0
			c0,0,0,0,0.1,0c0,0,0.1,0,0.1,0c5.6-0.2,19.1-1.4,24.9-9.2l0.2-0.3c5.7-7.9,2.8-21.1,1.2-26.5c0,0,0,0,0,0l0,0l0,0l-1.5-5.4l0,0
			l0,0c-0.8-2.7-4.3-14.7-1-22.8c-0.8-0.2-1.7-0.5-2.5-0.7c0,0.1-0.1,0.2-0.1,0.3C57.1,19,59.4,29.2,60.7,33.8z"/>
		<path class="st2" d="M58.2,35.6c0.2,0.7,0.4,1.6,0.7,2.5c0,0,0,0,0,0c0.2,0.6,0.3,1.2,0.5,1.8l2.8-0.8h0c0,0,0,0,0,0c0,0,0,0,0,0
			c0,0,0,0,0,0c-0.7-2.4-1.4-5-1.5-5.3c0,0,0,0,0,0c0,0,0,0,0,0l-2.8,0.7C57.9,34.5,58.1,35,58.2,35.6
			C58.2,35.6,58.2,35.6,58.2,35.6C58.2,35.6,58.2,35.6,58.2,35.6z"/>
		<polygon class="st2" points="67.6,37.9 67.6,37.9 66.9,35.3 66.9,35.3 66.4,33.5 63.6,34.3 63.6,34.3 63.6,34.4 65.1,39.8 
			65.1,39.8 67.9,39 		"/>
		<path class="st2" d="M31.8,73.4c0,0,0.1,0,0.4,0c1,0,3.5-0.2,5.1-0.2c0,0,0,0,0.1,0h0h0l-0.1-2.9c-0.5,0-1.2,0-1.9,0.1
			c0,0,0,0,0,0c-0.9,0-1.9,0.1-2.6,0.1c0,0,0,0,0,0c-0.7,0-1.2,0.1-1.2,0.1L31.8,73.4L31.8,73.4L31.8,73.4z"/>
		<path class="st2" d="M33.2,76L33.2,76l0,2.9c0.5,0,1.2,0,1.9-0.1c0,0,0,0,0,0c0.9,0,1.9-0.1,2.6-0.1c0,0,0,0,0,0c0,0,0,0,0,0
			c0.7,0,1.1-0.1,1.1-0.1l-0.1-2.9c0,0,0,0-0.1,0c0,0,0,0-0.1,0c0,0,0,0,0,0C37.8,75.8,34.7,76,33.2,76C33.2,76,33.2,76,33.2,76z"/>
	</g>
	
		<rect x="30.5" y="54.1" transform="matrix(0.8518 0.5239 -0.5239 0.8518 36.2403 -17.5263)" class="st2" width="37.3" height="2.3"/>
	<rect x="29.3" y="61" transform="matrix(0.8518 0.5239 -0.5239 0.8518 39.1644 -14.1522)" class="st2" width="30.6" height="2.3"/>
	<rect x="39" y="48.4" transform="matrix(0.8518 0.5239 -0.5239 0.8518 34.0336 -21.128)" class="st2" width="30.6" height="2.3"/>
</g>
</svg>
